<svg xmlns="http://www.w3.org/2000/svg" xmlns:xlink="http://www.w3.org/1999/xlink" id="Layer_1" x="0px" y="0px" viewBox="0 0 342 210" style="enable-background:new 0 0 342 210;" xml:space="preserve"><style type="text/css">	.st0{clip-path:url(#SVGID_00000098198808513672160410000008864154536517091473_);fill:#006583;}	.st1{clip-path:url(#SVGID_00000098198808513672160410000008864154536517091473_);fill:#A8D941;}	.st2{clip-path:url(#SVGID_00000098198808513672160410000008864154536517091473_);fill:#63C336;}	.st3{fill:#006380;}</style><g>	<defs>		<rect id="SVGID_1_" x="5.1" y="6.1" width="330.8" height="198"></rect>	</defs>	<clipPath id="SVGID_00000045577086715434985850000013738762685228913548_">		<use xlink:href="#SVGID_1_" style="overflow:visible;"></use>	</clipPath>	<path style="clip-path:url(#SVGID_00000045577086715434985850000013738762685228913548_);fill:#006583;" d="M335.7,109.8  L335.7,109.8c-8.7-13.7-23.8-12.6-34-9.9c4.2,2.5,7.3,6.7,8.7,11.7c0.8,2.9,1.1,6,1.2,9.1h0v3.6h0V135v17.9c0,1.4-0.5,3.9,0.1,5.3  c4.7-1.4,8.9-5.6,12.1-9.2c3.9-4.5,6.9-9.7,9-15.2c2.2-5.9,3-11.9,3.1-18.1c0-1.1,0.1-2.2,0-3.3C335.9,111.6,336,110.3,335.7,109.8  "></path>	<path style="clip-path:url(#SVGID_00000045577086715434985850000013738762685228913548_);fill:#A8D941;" d="M307.6,128.6  c0,0-2.6,2.7-4.7,4c-4,2.5-8.7,3.9-13.7,3.9c-20.1,0-21.3-18.2-21.6-24.9h0v-0.8V44.4V43h1.1h6.1c2.5,0,3.9-2.7,2.6-4.8l-10-14.9  L256.7,7.5c-1.2-1.8-3.9-1.8-5.1,0L241,23.3l-10,14.9c-1.4,2,0.1,4.8,2.6,4.8h5.9c0.4,0,0.9,0,1.3,0c0,1,0,2,0,3v-4.5v16v8.8v9.6  v9.8v9v7.6v5.5v2.6v0.1h0c0.1,14.4,4.3,28.6,13.8,38c9.6,9.5,20,14.4,34.6,14.4c5.7,0,11.2-0.9,16.3-2.6c1.2-0.4,2.1-0.7,2.1-0.7  V128.6z"></path>	<path style="clip-path:url(#SVGID_00000045577086715434985850000013738762685228913548_);fill:#63C336;" d="M287.6,68.9  c0,0-11.5,3.6-9.9,16.7c3.5,12.9,15.7,12.6,19,11.6c3.3-1,28.2-10.4,39.2,8.7c0,0-4.2-23.5-21.8-33.8c-1.8-1-3.6-1.8-5.4-2.4  c-1.3-0.4-2.5-0.7-3.8-1C293.9,66.4,287.6,68.9,287.6,68.9"></path>	<path style="clip-path:url(#SVGID_00000045577086715434985850000013738762685228913548_);fill:#006583;" d="M200.8,63.6  c-6.5,0-11.4,2.7-14.9,8.4l-2-7.6h-14.8l7.5,23.6l-6.4,20h15.3l6-19.1c2.6-8.2,4.8-10.8,8.9-10.8c3.6,0,6.3,3.1,6.3,8.1  c0,7.1-3,9.8-9.7,7.5l-3.7,12.9c18.4,6.4,29.4-2.2,29.4-20.4C222.6,72.8,214.1,63.6,200.8,63.6 M150.1,63.6c-4.2,0-8.3,1.2-11,2.7  l3.1,12.1c1.9-0.8,3-1.4,5.5-1.4c3.5,0,4.9,3,4.9,7.8c0,6.5-3.3,10.6-8.5,10.6c-5.5,0-8.8-4.1-8.8-10.6V64.3h-16v20.5  c0,15.4,10.5,24.4,24.8,24.4s24.5-8.9,24.5-24.4C168.5,69.8,160.6,63.6,150.1,63.6 M65.3,90.9l16-1.9V64.3h-16V90.9z"></path>	<path style="clip-path:url(#SVGID_00000045577086715434985850000013738762685228913548_);fill:#006583;" d="M208.9,147.9l13.3-1.6  v-20.4h-13.3V147.9z M204.9,143.3c0-13.2-8.4-18.1-18.5-18.1c-5.8,0-10.9,1.3-15.8,4.1l3.5,9.6c2.8-1.4,6.1-2.4,9.6-2.4  c5.5,0,8,3.7,8,10.1V162h13.3V143.3z M154.5,162h13.3v-36.1h-13.3V162z M118.9,125.9v20.4l12.9-2v-18.3H118.9z M136.2,141.8  c0,6.1-4.2,9.8-10.8,9.8c-6.6,0-10.8-3.7-10.8-9.8v-16h-13.3v15.8c0,13.1,9.2,21.3,24.1,21.3s24.1-8.2,24.1-21.3v-15.8h-13.3V141.8  z M77,119.8H63.7V137h17.2l-9.5,24.5v0.5h14.1l13-34.8v-1.3H77V119.8z M46.4,147.9l13.3-1.6v-20.4H46.4V147.9z M17.8,136.8h5.3  c5.2,0,6.6,2.4,6.6,7.3v6.9H17.8V136.8z M5.1,125.9V162h37.2v-19.9c0-11.7-6.7-16.2-19.1-16.2H5.1z"></path>	<path style="clip-path:url(#SVGID_00000045577086715434985850000013738762685228913548_);fill:#63C336;" d="M314.3,189.1v15h6.2  v-15.7L314.3,189.1z M314.2,185.4H327v5.5c0,2.5-0.7,3.2-2.2,3.2c-0.7,0-1.3-0.1-1.8-0.2l-0.8,5.2c1.1,0.4,2.3,0.5,3.8,0.5  c4,0,7.3-1.7,7.3-8.6v-11h-19V185.4z M292.2,199.3h6.3v-10.4l-6.3,0.7V199.3z M292,185.4h7.9c3.3,0,4.7,1.5,4.7,5.2v8.7h6.3v-9.2  c0-7.1-3.1-10.1-9.8-10.1H292V185.4z M282.5,191.8l6.3-0.8V180h-6.3V191.8z M269,176.8h-6.3v8.6h9.5l-5.1,13.7v0.3h6.7l6.8-18.7  V180H269V176.8z M242.5,199.3h6.3v-10.4l-6.3,0.7V199.3z M242.4,185.4h7.9c3.3,0,4.7,1.5,4.7,5.2v8.7h6.3v-9.2  c0-7.1-3.1-10.1-9.8-10.1h-9.1V185.4z M221.8,179.7c-2.8,0-5.2,1.3-6.7,4l-1-3.7h-6l3.4,10.5l-2.7,8.8h6.1l2.5-8.5  c1.2-4.2,2.4-5.4,4.3-5.4c1.8,0,3.2,1.5,3.2,4.3c0,3.8-1.6,5.3-5.1,3.9l-1.4,5.1c7.8,2.8,12.7-0.9,12.7-9  C231.2,183.8,227.5,179.7,221.8,179.7 M200,180c0.2,4.1-0.3,6.4-1.6,7.5l-5.1-7.5h-6.9v0.2l9.4,13.7h-7.9v5.3h18.3v-0.5l-4.7-6.9  c3.7-1.7,5-5.4,4.9-11.9H200z M176.7,179.7c-2.8,0-5.2,1.3-6.7,4l-1-3.7h-6l3.4,10.5l-2.7,8.8h6.1l2.5-8.5c1.2-4.2,2.4-5.4,4.3-5.4  c1.8,0,3.2,1.5,3.2,4.3c0,3.8-1.6,5.3-5.1,3.9l-1.4,5.1c7.8,2.8,12.7-0.9,12.7-9C186.1,183.8,182.4,179.7,176.7,179.7 M154.6,191.8  l6.3-0.8V180h-6.3V191.8z M132.5,180v19.3h6.3v-14h2.3c3,0,4.4,1.3,4.4,4.5v9.4h6.3v-9.8c0-6.7-3.4-9.5-10-9.5H132.5z M110.4,199.3  h6.3v-10.4l-6.3,0.7V199.3z M110.3,185.4h7.9c3.3,0,4.7,1.5,4.7,5.2v8.7h6.3v-9.2c0-7.1-3.1-10.1-9.8-10.1h-9.1V185.4z M92.3,186.3  c0,3.8-0.7,5.9-2.5,7.1L86.2,180h-6.5l4.1,15.2c-1.1,0.2-2.4,0.4-3.8,0.5l0.5,5.2c14.6-0.7,18.1-5.9,18.1-14.6V180h-6.3V186.3z   M68.7,194.3c-2.4,0-3.7-1.8-3.7-4.7v-4.2h3.7c2.5,0,3.7,1.5,3.7,4.2C72.4,192.6,71.1,194.3,68.7,194.3 M58.7,180v9.6  c0,6.4,3.7,10.2,10,10.2c6.3,0,10-3.8,10-10.2c0-6.2-3.4-9.6-9.9-9.6H58.7z M36.8,189.1v15h6.2v-15.7L36.8,189.1z M36.7,185.4h12.8  v5.5c0,2.5-0.7,3.2-2.2,3.2c-0.7,0-1.3-0.1-1.8-0.2l-0.8,5.2c1.1,0.4,2.3,0.5,3.8,0.5c4,0,7.3-1.7,7.3-8.6v-11h-19V185.4z   M27.2,191.8l6.3-0.8V180h-6.3V191.8z M11.2,185.3h3.3c2.8,0,3.8,1.2,3.8,4.1v4.5h-7.1V185.3z M5.1,180v19.3h19.4v-10.6  c0-6.3-3.3-8.6-9.9-8.6H5.1z"></path></g><path class="st3" d="M101.6,78.6h9.3l4.8-19.3H104L101.6,78.6z M87.2,78.6h9.3l4.8-19.3H89.6L87.2,78.6z"></path></svg>